<svg width="20" height="20" viewBox="0 0 20 20" fill="none" xmlns="http://www.w3.org/2000/svg">
<path fill-rule="evenodd" clip-rule="evenodd" d="M7.49988 3.33317C6.31059 3.33317 5.504 4.54305 5.96142 5.64086L6.60245 7.17932C6.77946 7.60416 6.57856 8.09205 6.15373 8.26907C5.7289 8.44608 5.241 8.24518 5.06399 7.82035L4.42296 6.28189C3.50812 4.08626 5.12129 1.6665 7.49988 1.6665H12.4947C14.8693 1.6665 16.4823 4.07867 15.5753 6.27313L14.9367 7.81816C14.7609 8.2435 14.2736 8.44578 13.8482 8.26998C13.4229 8.09417 13.2206 7.60685 13.3964 7.18151L14.035 5.63648C14.4885 4.53925 13.682 3.33317 12.4947 3.33317H7.49988Z" fill="#F23847"/>
<path d="M16.6666 11.6667C16.6666 15.3486 13.6818 18.3333 9.99992 18.3333C6.31802 18.3333 3.33325 15.3486 3.33325 11.6667C3.33325 7.98477 6.31802 5 9.99992 5C13.6818 5 16.6666 7.98477 16.6666 11.6667Z" fill="#F23847"/>
</svg>
